<?xml version="1.0" encoding="utf-8"?>
<!-- Generator: Adobe Illustrator 24.1.1, SVG Export Plug-In . SVG Version: 6.00 Build 0)  -->
<svg version="1.1" id="Layer_1" xmlns="http://www.w3.org/2000/svg" xmlns:xlink="http://www.w3.org/1999/xlink" x="0px" y="0px"
	 viewBox="0 0 101.3 40" style="enable-background:new 0 0 101.3 40;" xml:space="preserve">
<style type="text/css">
	.st0{fill:url(#SVGID_1_);}
	.st1{fill:#FFFFFF;}
	.st2{fill:url(#SVGID_2_);}
	.st3{fill:url(#SVGID_3_);}
	.st4{fill:url(#SVGID_4_);}
	.st5{fill:url(#SVGID_5_);}
	.st6{fill:url(#SVGID_6_);}
	.st7{fill:url(#SVGID_7_);}
	.st8{fill:url(#SVGID_8_);}
	.st9{fill:url(#SVGID_9_);}
	.st10{fill:url(#SVGID_10_);}
</style>
<linearGradient id="SVGID_1_" gradientUnits="userSpaceOnUse" x1="-101.875" y1="143.3896" x2="-101.875" y2="144.3603" gradientTransform="matrix(40 0 0 -39.7778 4095.0002 5742.3335)">
	<stop  offset="0" style="stop-color:#0062E0"/>
	<stop  offset="1" style="stop-color:#19AFFF"/>
</linearGradient>
<path class="st0" d="M16.7,39.8C7.2,38.1,0,29.9,0,20C0,9,9,0,20,0s20,9,20,20c0,9.9-7.2,18.1-16.7,19.8H22h-4.1H16.7z"/>
<g>
	<path class="st1" d="M19.9,39.9h-1.3c-0.5-0.2-2.1,0.2-2.3-0.2c-0.1-0.4-0.1-1.1,0.2-2.1c0.3-1,0.7-2.3,1.5-3.7
		c0.7-1.5,1.7-3.1,3-4.9c1.3-1.8,2.8-3.6,4.6-5.5c-0.4-0.8-0.8-1.3-1.3-1.4s-1-0.1-1.8,0.2c-0.7,0.2-1.7,1-3.1,2.3
		c-1.4,1.3-2.5,2.6-3.4,4.1c-0.3,0.6-0.6,0.9-0.8,1c-0.2,0.1-0.4-0.1-0.5-0.4c-0.2-0.6-0.3-1.4-0.2-2.4c0.1-1,0.3-1.8,0.7-2.4
		c0.5-0.9,1.4-2,2.7-3.3c1.4-1.4,2.6-2.8,3.7-4.2c1-1.4,1.8-2.7,2.3-3.8s0.6-1.8,0.5-2.2c-0.2-0.4-0.7-0.5-1.5-0.2
		c-1.1,0.4-2.3,1.1-3.7,2.1c-1.3,1-2.7,2.4-4.2,4.1c-1.5,1.7-2.9,3.7-4.4,5.9c-0.5-1.6-0.8-2.9-0.9-3.9c-0.1-1-0.1-1.9,0.1-2.6
		c0.2-0.7,0.5-1.4,1-2.1c0.5-0.7,1.2-1.6,2.2-2.7c2.8-3.2,5.3-5.2,7.6-6c1.4-0.5,2.7-0.6,3.7-0.1c1.1,0.4,1.8,1.2,2.3,2.5
		c0.3,0.9,0.4,1.8,0.3,2.7c-0.1,0.9-0.4,1.8-0.9,2.7C25.4,14.1,24.7,15,24,16c-0.7,0.9-1.7,2-2.8,3.1c1.5-0.5,2.8-0.5,3.7-0.2
		s1.7,1.3,2.5,2.8l1.9-1.7l0.5,1.3l-2,1.9c0.2,2.1,0.1,4.2-0.5,6.2c-0.6,2-1.4,3.9-2.4,5.6c-1,1.7-1.5,3-2.6,4c0,0-0.9,0.6-1.5,0.8
		C20.4,39.8,20.2,40,19.9,39.9z M25.7,25.4c-1.1,1.1-2.2,2.3-3.1,3.7s-1.7,2.7-2.3,3.9c-0.6,1.2-1,2.4-1.4,3.3
		c-0.3,1-0.4,1.6-0.3,1.8c0.1,0.2,0.3,0.3,0.6,0.2c0.5-0.2,1.5-0.9,2.6-2.2c1-1.3,1.8-3,2.7-5.1c0.6-1.4,1-2.5,1.1-3.2
		C25.7,27,25.7,26.2,25.7,25.4z"/>
</g>
<g>
	<linearGradient id="SVGID_2_" gradientUnits="userSpaceOnUse" x1="52.4453" y1="38.3483" x2="52.4453" y2="16.2158">
		<stop  offset="0" style="stop-color:#0062E0"/>
		<stop  offset="1" style="stop-color:#19AFFF"/>
	</linearGradient>
	<path class="st2" d="M46.2,26.4L45.8,26c-0.3-0.3-0.4-0.6-0.4-0.9c0-0.3,0.2-0.7,0.6-1.4c0.4-0.6,1-1.3,1.8-2.1s1.9-1.7,3.1-2.5
		c1.3-0.9,2.7-1.7,4.3-2.5c-0.1-0.6-0.3-1-0.5-1.3c-0.2-0.2-0.7-0.3-1.2-0.3c-0.5,0-1.3,0.3-2.6,0.8c-1.2,0.5-2.3,1.2-3.2,1.9
		c-0.4,0.3-0.6,0.4-0.8,0.4c-0.2,0-0.3-0.1-0.3-0.4c0-0.5,0.1-1,0.4-1.6c0.3-0.6,0.6-1.1,1-1.4c0.6-0.5,1.4-1,2.6-1.5
		c1.3-0.6,2.4-1.2,3.4-1.9c1-0.7,1.8-1.4,2.4-2c0.6-0.6,0.8-1.1,0.8-1.4c0-0.3-0.3-0.5-1-0.5c-0.8,0-1.8,0.2-2.9,0.5
		c-1.1,0.4-2.4,0.9-3.7,1.7c-1.4,0.8-2.8,1.8-4.3,2.9c0.1-1.2,0.2-2.1,0.3-2.8s0.3-1.3,0.6-1.7c0.3-0.4,0.7-0.8,1.1-1.1
		c0.5-0.3,1.2-0.8,2.1-1.3c2.6-1.4,4.7-2.2,6.5-2.2c1.1,0,1.9,0.3,2.5,0.8s0.9,1.3,0.9,2.2c0,0.7-0.1,1.3-0.4,1.8s-0.7,1.1-1.2,1.6
		c-0.5,0.5-1.2,1-1.9,1.4c-0.7,0.4-1.6,0.9-2.6,1.4c1.1,0,2,0.3,2.5,0.7c0.5,0.5,0.8,1.3,1,2.4l1.7-0.7v1l-1.7,0.8
		c-0.3,1.4-0.9,2.8-1.8,4c-0.9,1.2-1.8,2.3-2.9,3.1c-1.1,0.9-2.1,1.5-3.1,2c-1,0.5-1.7,0.7-2.2,0.7C46.6,26.6,46.4,26.6,46.2,26.4z
		 M54.9,17.9c-1,0.4-2,1-2.9,1.7c-0.9,0.7-1.7,1.4-2.4,2.1c-0.7,0.7-1.2,1.3-1.7,1.9c-0.4,0.6-0.7,1-0.7,1.1c0,0.2,0.1,0.2,0.4,0.2
		c0.4,0,1.1-0.3,2.1-0.9c1-0.6,2-1.5,3.1-2.7c0.7-0.8,1.2-1.4,1.5-1.9C54.5,18.9,54.8,18.4,54.9,17.9z"/>
	<linearGradient id="SVGID_3_" gradientUnits="userSpaceOnUse" x1="63.606" y1="38.3483" x2="63.606" y2="16.2158">
		<stop  offset="0" style="stop-color:#0062E0"/>
		<stop  offset="1" style="stop-color:#19AFFF"/>
	</linearGradient>
	<path class="st3" d="M64.6,14.2c-1.2,1.6-2.2,2.8-2.8,3.5c-0.6,0.7-1.2,1-1.6,1c-0.3,0-0.6-0.1-0.9-0.4s-0.5-0.6-0.6-1.1
		s-0.2-0.9-0.2-1.5c0-0.3,0-0.6,0.1-0.9c0.1-0.3,0.2-0.6,0.4-0.9s0.4-0.7,0.7-1.1c0.3-0.4,0.7-0.8,1.1-1.3c0.3-0.3,0.5-0.5,0.6-0.8
		c0.2-0.2,0.3-0.3,0.5-0.4s0.4-0.1,0.8-0.1c0.3,0,0.5,0,0.8,0.1s0.4,0.1,0.4,0.2c0,0.2-0.1,0.4-0.4,0.8c-0.3,0.4-0.7,0.9-1.2,1.5
		s-1.2,1.1-1.9,1.7c-0.2,0.5-0.2,0.9-0.2,1.1c0,0.4,0.1,0.5,0.4,0.5c0.1,0,0.3-0.1,0.5-0.3s0.6-0.5,1.2-1c0.6-0.5,1.1-0.9,1.5-1.3
		c0.3-0.3,0.7-0.7,1.2-1.3s0.8-1,1.1-1.3c0.6-0.7,1.1-1.1,1.3-1.3c0.2-0.2,0.5-0.3,0.7-0.3c0.2,0,0.3,0.1,0.4,0.2
		c0.1,0.1,0.1,0.4,0.1,0.8c0,0.2,0,0.3-0.1,0.4s-0.1,0.3-0.2,0.4c-0.1,0.2-0.3,0.5-0.6,1s-0.7,1-1.1,1.7c-0.2,0.3-0.4,0.7-0.6,1.1
		c-0.2,0.4-0.3,0.7-0.3,0.9c0,0.4,0.2,0.7,0.5,0.7c0.3,0,0.6-0.1,1-0.4c0.4-0.2,1-0.7,1.8-1.3v0.9c-1,0.9-1.7,1.6-2.2,2
		c-0.5,0.4-0.9,0.7-1.2,0.9c-0.3,0.2-0.7,0.3-1,0.3c-0.7,0-1.1-0.4-1.1-1.3c0-0.3,0.1-0.8,0.3-1.3C63.8,16,64.1,15.2,64.6,14.2z"/>
	<linearGradient id="SVGID_4_" gradientUnits="userSpaceOnUse" x1="72.4053" y1="38.3483" x2="72.4053" y2="16.2158">
		<stop  offset="0" style="stop-color:#0062E0"/>
		<stop  offset="1" style="stop-color:#19AFFF"/>
	</linearGradient>
	<path class="st4" d="M76.3,15.1v0.9c-0.9,0.9-1.7,1.6-2.2,2.1c-0.6,0.5-1.1,0.9-1.6,1.1c-0.5,0.3-1,0.4-1.5,0.4
		c-0.5,0-0.9-0.2-1.3-0.6s-0.7-0.9-0.9-1.5c-0.2-0.6-0.3-1.2-0.3-1.9c0-0.6,0.1-1.1,0.4-1.5c0.3-0.5,0.7-1,1.5-1.7
		c0.9-0.9,1.7-1.5,2.4-2c0.7-0.5,1.3-0.7,1.8-0.7c0.3,0,0.6,0.1,0.8,0.3c0.2,0.2,0.3,0.5,0.3,0.8c0,0.3-0.1,0.7-0.4,1.2
		c-0.3,0.5-0.6,0.9-0.9,1.3s-0.6,0.6-0.8,0.6c-0.2,0-0.3-0.1-0.3-0.4c0-0.1,0-0.1,0-0.2c0-0.1,0-0.1,0-0.2c0-0.1,0-0.2-0.1-0.2
		s-0.2,0-0.3,0.1c-0.9,0.6-1.4,1-1.7,1.3c-0.3,0.2-0.6,0.5-0.7,0.7S70,15.5,70,15.8c0,0.5,0.2,0.9,0.5,1.2c0.3,0.3,0.7,0.5,1.3,0.5
		c0.5,0,1.2-0.2,1.9-0.6C74.4,16.5,75.3,15.9,76.3,15.1z"/>
	<linearGradient id="SVGID_5_" gradientUnits="userSpaceOnUse" x1="81.0762" y1="38.3483" x2="81.0762" y2="16.2158">
		<stop  offset="0" style="stop-color:#0062E0"/>
		<stop  offset="1" style="stop-color:#19AFFF"/>
	</linearGradient>
	<path class="st5" d="M85.9,15.1v0.9c-1,1.1-1.8,2-2.4,2.5s-1.2,0.9-1.6,0.9c-0.4,0-0.8-0.1-1.1-0.4c-0.3-0.2-0.6-0.6-0.9-1
		c-0.3-0.4-0.6-1-1-1.8c-0.4,0.5-0.8,1-1.2,1.5c-0.3,0.5-0.6,0.8-0.7,0.9c-0.1,0.2-0.3,0.2-0.4,0.2c-0.2,0-0.4-0.1-0.5-0.4
		C76,18,76,17.6,76,17c0-0.8,0.1-1.5,0.3-2.2c0.2-0.7,0.4-1.4,0.8-2.1c0.3-0.7,0.8-1.4,1.3-2.2c0.5-0.8,1.1-1.6,1.8-2.4
		C81.1,7,81.9,6,82.6,5.3s1.3-1.3,1.8-1.7C84.8,3.2,85.2,3,85.6,3c0.4,0,0.6,0.2,0.6,0.5c0,0.3-0.8,1.4-2.3,3.4s-3.7,4.6-6.6,8V16
		c1.9-2.1,3.5-3.6,4.7-4.6c1.2-1,2.1-1.5,2.7-1.5c0.3,0,0.5,0.2,0.6,0.5c0.1,0.3,0.2,0.7,0.2,1.1c0,0.8-0.4,1.6-1.1,2.3
		c-0.7,0.7-1.8,1.5-3.3,2.4c0.3,0.4,0.5,0.7,0.7,0.8c0.2,0.2,0.4,0.3,0.7,0.3c0.3,0,0.5-0.1,0.9-0.3c0.3-0.2,0.6-0.4,0.9-0.7
		C84.7,16.1,85.2,15.7,85.9,15.1z M80.9,15.7c0.3-0.2,0.7-0.5,1.2-1c0.5-0.4,0.9-0.9,1.2-1.4c0.3-0.5,0.5-0.9,0.5-1.2
		c0-0.1-0.1-0.2-0.2-0.2c-0.3,0-0.9,0.3-1.7,0.9c-0.8,0.6-1.6,1.4-2.3,2.4C80,15.2,80.4,15.4,80.9,15.7z"/>
</g>
<g>
	<linearGradient id="SVGID_6_" gradientUnits="userSpaceOnUse" x1="58.8691" y1="38.3483" x2="58.8691" y2="16.2158">
		<stop  offset="0" style="stop-color:#0062E0"/>
		<stop  offset="1" style="stop-color:#19AFFF"/>
	</linearGradient>
	<path class="st6" d="M63,31c-0.2-0.4-0.5-0.7-0.9-1s-0.9-0.6-1.4-0.7c-0.5-0.2-1.1-0.3-1.6-0.4c-1.7-0.2-3.2-0.8-4.7-1.6
		c-0.1-0.1-0.3-0.2-0.4-0.4c-0.1-0.2-0.2-0.4-0.2-0.6c0-0.7,0.1-1.5,0.4-2.2c0.2-0.7,0.6-1.3,0.9-1.7c0.6-0.7,1.7-1.3,3.3-1.8
		c1.6-0.5,3.4-0.8,5.4-0.8c1.2,0,2.1,0.1,2.8,0.3c0.6,0.2,1,0.5,1,0.8c0,0.6-0.1,1.1-0.3,1.4c-0.2,0.3-0.3,0.6-0.5,0.7
		c-0.2,0.1-0.5,0.3-1,0.5c-0.5,0.2-1,0.4-1.4,0.6c-0.4,0.2-0.7,0.4-1,0.6s-0.4,0.3-0.5,0.3c-0.1,0-0.1,0-0.1-0.1
		c0-0.1,0.1-0.4,0.4-0.6s0.7-0.5,1.1-0.7c0.5-0.2,0.7-0.4,0.7-0.5c0-0.1-0.3-0.2-0.8-0.2c-1.5,0-2.9,0.1-4.2,0.4
		c-1.3,0.3-2.3,0.6-3.1,1.1c-0.7,0.4-1.1,0.9-1.1,1.4c0,0.3,0.2,0.5,0.5,0.6c0.3,0.1,1,0.3,2,0.6s2,0.6,2.8,1c1.2,0.5,2.1,1,2.7,1.6
		c0.6,0.6,0.9,1.2,0.9,1.9c0,0.5-0.1,0.9-0.3,1.4c-0.2,0.5-0.6,0.9-1,1.3c-0.4,0.4-0.9,0.7-1.5,1c-0.5,0.2-1.1,0.4-1.8,0.6
		s-1.5,0.3-2.4,0.4C56.7,36,55.8,36,55.1,36c-1.4,0-2.6-0.1-3.5-0.4c-0.9-0.3-1.3-0.7-1.3-1.2c0-0.2,0.1-0.6,0.4-1.2
		s0.6-0.9,1.1-1.1c0.4-0.1,0.7-0.2,1-0.2c0.3,0,0.5,0,0.5,0.1c0,0,0,0,0,0.1c0,0-0.1,0-0.1,0.1c0,0-0.1,0-0.1,0
		c-0.2,0.1-0.3,0.1-0.4,0.2s-0.2,0.1-0.2,0.1c-0.1,0-0.1,0.1-0.1,0.2c0,0.2,0.9,0.3,2.6,0.3c1.5,0,2.7-0.1,3.6-0.2
		c0.9-0.1,1.8-0.3,2.5-0.6C61.8,31.9,62.4,31.5,63,31z"/>
	<linearGradient id="SVGID_7_" gradientUnits="userSpaceOnUse" x1="71.4297" y1="38.3483" x2="71.4297" y2="16.2158">
		<stop  offset="0" style="stop-color:#0062E0"/>
		<stop  offset="1" style="stop-color:#19AFFF"/>
	</linearGradient>
	<path class="st7" d="M72.4,29.9c-1.2,1.6-2.1,2.7-2.7,3.4c-0.6,0.7-1.1,1-1.5,1c-0.3,0-0.6-0.1-0.9-0.4s-0.5-0.6-0.6-1.1
		c-0.1-0.4-0.2-0.9-0.2-1.4c0-0.3,0-0.6,0.1-0.9c0.1-0.3,0.2-0.6,0.4-0.9c0.2-0.3,0.4-0.7,0.7-1c0.3-0.4,0.6-0.8,1-1.3
		c0.2-0.3,0.5-0.5,0.6-0.7c0.2-0.2,0.3-0.3,0.5-0.4c0.2-0.1,0.4-0.1,0.8-0.1c0.3,0,0.5,0,0.8,0.1c0.2,0.1,0.4,0.1,0.4,0.2
		c0,0.1-0.1,0.4-0.4,0.8c-0.2,0.4-0.6,0.9-1.2,1.4c-0.5,0.6-1.2,1.1-1.9,1.6c-0.2,0.5-0.2,0.9-0.2,1.1c0,0.4,0.1,0.5,0.4,0.5
		c0.1,0,0.3-0.1,0.5-0.3s0.6-0.5,1.2-1c0.5-0.5,1-0.9,1.5-1.3c0.3-0.3,0.7-0.7,1.1-1.3c0.4-0.6,0.8-1,1-1.3c0.6-0.6,1-1.1,1.2-1.3
		c0.2-0.2,0.4-0.3,0.6-0.3c0.2,0,0.3,0.1,0.4,0.2c0.1,0.1,0.1,0.4,0.1,0.8c0,0.2,0,0.3,0,0.4c0,0.1-0.1,0.2-0.2,0.4
		s-0.3,0.5-0.6,0.9c-0.3,0.5-0.7,1-1.1,1.6c-0.2,0.3-0.4,0.7-0.6,1.1c-0.2,0.4-0.3,0.7-0.3,0.9c0,0.4,0.2,0.6,0.5,0.6
		c0.3,0,0.6-0.1,1-0.3c0.4-0.2,0.9-0.6,1.7-1.2v0.8c-1,0.9-1.7,1.5-2.1,1.9c-0.5,0.4-0.9,0.7-1.2,0.9c-0.3,0.2-0.7,0.3-1,0.3
		c-0.7,0-1-0.4-1-1.2c0-0.3,0.1-0.7,0.3-1.3C71.6,31.6,71.9,30.9,72.4,29.9z"/>
	<linearGradient id="SVGID_8_" gradientUnits="userSpaceOnUse" x1="79.9541" y1="38.3483" x2="79.9541" y2="16.2158">
		<stop  offset="0" style="stop-color:#0062E0"/>
		<stop  offset="1" style="stop-color:#19AFFF"/>
	</linearGradient>
	<path class="st8" d="M83.8,30.7v0.8c-0.9,0.9-1.6,1.5-2.2,2C81,34,80.5,34.4,80,34.7c-0.5,0.3-1,0.4-1.4,0.4
		c-0.5,0-0.9-0.2-1.3-0.5s-0.7-0.8-0.9-1.4c-0.2-0.6-0.3-1.2-0.3-1.8c0-0.6,0.1-1.1,0.4-1.5c0.2-0.4,0.7-1,1.4-1.7
		c0.8-0.8,1.6-1.5,2.3-1.9c0.7-0.4,1.3-0.7,1.7-0.7c0.3,0,0.5,0.1,0.8,0.3c0.2,0.2,0.3,0.5,0.3,0.8c0,0.3-0.1,0.6-0.4,1.1
		c-0.3,0.5-0.6,0.9-0.9,1.3s-0.6,0.5-0.8,0.5c-0.2,0-0.3-0.1-0.3-0.3c0-0.1,0-0.1,0-0.2c0-0.1,0-0.1,0-0.2c0-0.1,0-0.2-0.1-0.2
		s-0.2,0-0.3,0.1c-0.8,0.6-1.4,1-1.7,1.2s-0.5,0.5-0.7,0.7c-0.2,0.2-0.3,0.5-0.3,0.8c0,0.5,0.2,0.9,0.5,1.2c0.3,0.3,0.7,0.5,1.2,0.5
		c0.5,0,1.1-0.2,1.9-0.6C81.9,32.1,82.8,31.5,83.8,30.7z"/>
	<linearGradient id="SVGID_9_" gradientUnits="userSpaceOnUse" x1="88.3535" y1="38.3483" x2="88.3535" y2="16.2158">
		<stop  offset="0" style="stop-color:#0062E0"/>
		<stop  offset="1" style="stop-color:#19AFFF"/>
	</linearGradient>
	<path class="st9" d="M93,30.7v0.8c-0.9,1.1-1.7,1.9-2.3,2.5c-0.6,0.6-1.2,0.8-1.6,0.8c-0.4,0-0.8-0.1-1.1-0.4
		c-0.3-0.2-0.6-0.6-0.9-1s-0.6-1-0.9-1.8c-0.4,0.5-0.8,1-1.1,1.5s-0.6,0.7-0.7,0.9c-0.1,0.1-0.3,0.2-0.4,0.2c-0.2,0-0.4-0.1-0.5-0.4
		s-0.1-0.7-0.1-1.2c0-0.7,0.1-1.5,0.3-2.1c0.2-0.7,0.4-1.4,0.8-2s0.8-1.4,1.3-2.1c0.5-0.8,1.1-1.5,1.8-2.4c0.9-1.1,1.7-2.1,2.3-2.8
		c0.7-0.7,1.2-1.3,1.7-1.6c0.5-0.4,0.9-0.5,1.2-0.5c0.4,0,0.6,0.2,0.6,0.5c0,0.3-0.7,1.4-2.2,3.3s-3.6,4.5-6.4,7.7v1.1
		c1.9-2,3.4-3.5,4.5-4.5c1.1-1,2-1.5,2.7-1.5c0.3,0,0.5,0.2,0.6,0.5s0.2,0.6,0.2,1c0,0.8-0.3,1.6-1,2.2c-0.7,0.7-1.8,1.5-3.2,2.4
		c0.2,0.4,0.5,0.6,0.7,0.8s0.4,0.3,0.7,0.3c0.3,0,0.5-0.1,0.8-0.3s0.6-0.4,0.9-0.7C91.9,31.7,92.4,31.3,93,30.7z M88.1,31.3
		c0.3-0.2,0.7-0.5,1.2-1c0.5-0.4,0.9-0.9,1.2-1.3c0.3-0.5,0.5-0.9,0.5-1.2c0-0.1-0.1-0.2-0.2-0.2c-0.3,0-0.9,0.3-1.6,0.9
		s-1.5,1.4-2.2,2.3C87.3,30.9,87.7,31,88.1,31.3z"/>
	<linearGradient id="SVGID_10_" gradientUnits="userSpaceOnUse" x1="96.8975" y1="38.3483" x2="96.8975" y2="16.2158">
		<stop  offset="0" style="stop-color:#0062E0"/>
		<stop  offset="1" style="stop-color:#19AFFF"/>
	</linearGradient>
	<path class="st10" d="M92.9,31v-0.3c2.1-2.2,3.6-3.8,4.4-4.7c0.2-1,0.6-1.5,1.3-1.5c0.2,0,0.4,0,0.6,0.1l0.1,0.2
		c0,0.1-0.1,0.2-0.1,0.4c0,0.2,0.1,0.4,0.2,0.9s0.2,0.8,0.3,1.1c0.1,0.3,0.1,0.6,0.1,1c0,0.5-0.1,1.1-0.4,1.6
		c-0.2,0.5-0.6,1-1.1,1.4c-0.5,0.5-1.1,0.9-1.8,1.4c0.3,0,0.5,0.1,0.7,0.1c0.3,0,0.7-0.1,1.1-0.3s0.8-0.4,1.2-0.7s0.9-0.7,1.4-1.1
		v0.8c-1.1,1-2,1.8-2.8,2.3c-0.8,0.5-1.6,0.8-2.2,0.8c-0.8,0-1.5-0.3-2.2-1c-0.4-0.4-0.6-0.8-0.7-1.1C92.9,32.2,92.9,31.7,92.9,31z
		 M97.5,29.2l-0.2-1.8c-0.5,0.6-1.6,1.7-3.3,3.3c0.5,0.1,0.8,0.3,1,0.4c0.2,0.2,0.4,0.5,0.8,1.1c0.6-0.2,1-0.5,1.3-0.9
		c0.3-0.4,0.5-0.9,0.5-1.6c0-0.1,0-0.2,0-0.2C97.5,29.3,97.5,29.2,97.5,29.2z"/>
</g>
</svg>
