<?xml version="1.0" encoding="utf-8"?>
<!-- Generator: Adobe Illustrator 24.1.1, SVG Export Plug-In . SVG Version: 6.00 Build 0)  -->
<svg version="1.1" id="Layer_1" xmlns="http://www.w3.org/2000/svg" xmlns:xlink="http://www.w3.org/1999/xlink" x="0px" y="0px"
	 viewBox="0 0 1013 400" style="enable-background:new 0 0 1013 400;" xml:space="preserve">
<style type="text/css">
	.st0{fill:url(#SVGID_1_);}
	.st1{fill:#FFFFFF;}
	.st2{fill:url(#SVGID_2_);}
	.st3{fill:url(#SVGID_3_);}
	.st4{fill:url(#SVGID_4_);}
	.st5{fill:url(#SVGID_5_);}
	.st6{fill:url(#SVGID_6_);}
	.st7{fill:url(#SVGID_7_);}
	.st8{fill:url(#SVGID_8_);}
	.st9{fill:url(#SVGID_9_);}
	.st10{fill:url(#SVGID_10_);}
</style>
<linearGradient id="SVGID_1_" gradientUnits="userSpaceOnUse" x1="274.9577" y1="190.4849" x2="274.9577" y2="180.7779" gradientTransform="matrix(40 0 0 39.7778 -10796.5254 -7190.6279)">
	<stop  offset="0" style="stop-color:#0062E0"/>
	<stop  offset="1" style="stop-color:#19AFFF"/>
</linearGradient>
<path class="st0" d="M168.8,398.3c-95-17-167-99-167-198c0-110,90-200,200-200s200,90,200,200c0,99-72,181-167,198h-13h-41H168.8z"
	/>
<g>
	<path class="st1" d="M200.8,399.3h-13c-5-2-21,2-23-2c-1-4-1-11,2-21c3-10,7-23,15-37c7-15,17-31,30-49c13-18,28-36,46-55
		c-4-8-8-13-13-14c-5-1-10-1-18,2c-7,2-17,10-31,23s-25,26-34,41c-3,6-6,9-8,10s-4-1-5-4c-2-6-3-14-2-24c1-10,3-18,7-24
		c5-9,14-20,27-33c14-14,26-28,37-42c10-14,18-27,23-38c5-11,6-18,5-22c-2-4-7-5-15-2c-11,4-23,11-37,21c-13,10-27,24-42,41
		c-15,17-29,37-44,59c-5-16-8-29-9-39s-1-19,1-26c2-7,5-14,10-21c5-7,12-16,22-27c28-32,53-52,76-60c14-5,27-6,37-1
		c11,4,18,12,23,25c3,9,4,18,3,27c-1,9-4,18-9,27c-6,7-13,16-20,26c-7,9-17,20-28,31c15-5,28-5,37-2c9,3,17,13,25,28l19-17l5,13
		l-20,19c2,21,1,42-5,62s-14,39-24,56c-10,17-15,30-26,40c0,0-9,6-15,8C205.8,398.3,203.8,400.3,200.8,399.3z M258.8,254.3
		c-11,11-22,23-31,37c-9,14-17,27-23,39c-6,12-10,24-14,33c-3,10-4,16-3,18c1,2,3,3,6,2c5-2,15-9,26-22c10-13,18-30,27-51
		c6-14,10-25,11-32C258.8,270.3,258.8,262.3,258.8,254.3z"/>
</g>
<g>
	
		<linearGradient id="SVGID_2_" gradientUnits="userSpaceOnUse" x1="524.7839" y1="18.209" x2="524.7839" y2="239.534" gradientTransform="matrix(1 0 0 -1 0 402.032)">
		<stop  offset="0" style="stop-color:#0062E0"/>
		<stop  offset="1" style="stop-color:#19AFFF"/>
	</linearGradient>
	<path class="st2" d="M463.8,264.3l-4-4c-3-3-4-6-4-9c0-3,2-7,6-14c4-6,10-13,18-21c8-8,19-17,31-25c13-9,27-17,43-25
		c-1-6-3-10-5-13c-2-2-7-3-12-3s-13,3-26,8c-12,5-23,12-32,19c-4,3-6,4-8,4s-3-1-3-4c0-5,1-10,4-16c3-6,6-11,10-14c6-5,14-10,26-15
		c13-6,24-12,34-19c10-7,18-14,24-20c6-6,8-11,8-14s-3-5-10-5c-8,0-18,2-29,5c-11,4-24,9-37,17c-14,8-28,18-43,29c1-12,2-21,3-28
		c1-7,3-13,6-17c3-4,7-8,11-11c5-3,12-8,21-13c26-14,47-22,65-22c11,0,19,3,25,8s9,13,9,22c0,7-1,13-4,18c-3,5-7,11-12,16
		s-12,10-19,14c-7,4-16,9-26,14c11,0,20,3,25,7c5,5,8,13,10,24l17-7v10l-17,8c-3,14-9,28-18,40c-9,12-18,23-29,31c-11,9-21,15-31,20
		s-17,7-22,7C467.8,266.3,465.8,266.3,463.8,264.3z M550.8,179.3c-10,4-20,10-29,17c-9,7-17,14-24,21c-7,7-12,13-17,19
		c-4,6-7,10-7,11c0,2,1,2,4,2c4,0,11-3,21-9c10-6,20-15,31-27c7-8,12-14,15-19C546.8,189.3,549.8,184.3,550.8,179.3z"/>
	
		<linearGradient id="SVGID_3_" gradientUnits="userSpaceOnUse" x1="639.284" y1="18.209" x2="639.284" y2="239.534" gradientTransform="matrix(1 0 0 -1 0 402.032)">
		<stop  offset="0" style="stop-color:#0062E0"/>
		<stop  offset="1" style="stop-color:#19AFFF"/>
	</linearGradient>
	<path class="st3" d="M647.8,142.3c-12,16-22,28-28,35c-6,7-12,10-16,10c-3,0-6-1-9-4c-3-3-5-6-6-11c-1-5-2-9-2-15c0-3,0-6,1-9
		c1-3,2-6,4-9c2-3,4-7,7-11c3-4,7-8,11-13c3-3,5-5,6-8c2-2,3-3,5-4c2-1,4-1,8-1c3,0,5,0,8,1c3,1,4,1,4,2c0,2-1,4-4,8c-3,4-7,9-12,15
		c-5,6-12,11-19,17c-2,5-2,9-2,11c0,4,1,5,4,5c1,0,3-1,5-3c2-2,6-5,12-10c6-5,11-9,15-13c3-3,7-7,12-13s8-10,11-13c6-7,11-11,13-13
		s5-3,7-3c2,0,3,1,4,2c1,1,1,4,1,8c0,2,0,3-1,4s-1,3-2,4c-1,2-3,5-6,10s-7,10-11,17c-2,3-4,7-6,11c-2,4-3,7-3,9c0,4,2,7,5,7
		c3,0,6-1,10-4c4-2,10-7,18-13v9c-10,9-17,16-22,20c-5,4-9,7-12,9c-3,2-7,3-10,3c-7,0-11-4-11-13c0-3,1-8,3-13
		C639.8,160.3,642.8,152.3,647.8,142.3z"/>
	
		<linearGradient id="SVGID_4_" gradientUnits="userSpaceOnUse" x1="725.7841" y1="18.209" x2="725.7841" y2="239.534" gradientTransform="matrix(1 0 0 -1 0 402.032)">
		<stop  offset="0" style="stop-color:#0062E0"/>
		<stop  offset="1" style="stop-color:#19AFFF"/>
	</linearGradient>
	<path class="st4" d="M764.8,151.3v9c-9,9-17,16-22,21c-6,5-11,9-16,11c-5,3-10,4-15,4s-9-2-13-6s-7-9-9-15c-2-6-3-12-3-19
		c0-6,1-11,4-15c3-5,7-10,15-17c9-9,17-15,24-20c7-5,13-7,18-7c3,0,6,1,8,3c2,2,3,5,3,8c0,3-1,7-4,12c-3,5-6,9-9,13c-3,4-6,6-8,6
		c-2,0-3-1-3-4c0-1,0-1,0-2s0-1,0-2c0-1,0-2-1-2s-2,0-3,1c-9,6-14,10-17,13c-3,2-6,5-7,7c-1,2-5,5-5,8c0,5,2,9,5,12c3,3,7,5,13,5
		c5,0,12-2,19-6C745.8,165.3,754.8,159.3,764.8,151.3z"/>
	
		<linearGradient id="SVGID_5_" gradientUnits="userSpaceOnUse" x1="812.784" y1="18.209" x2="812.784" y2="239.534" gradientTransform="matrix(1 0 0 -1 0 402.032)">
		<stop  offset="0" style="stop-color:#0062E0"/>
		<stop  offset="1" style="stop-color:#19AFFF"/>
	</linearGradient>
	<path class="st5" d="M860.8,151.3v9c-10,11-18,20-24,25c-6,5-12,9-16,9c-4,0-8-1-11-4c-3-2-6-6-9-10c-3-4-6-10-10-18
		c-4,5-8,10-12,15c-3,5-6,8-7,9c-1,2-3,2-4,2c-2,0-4-1-5-4c-1-4-1-8-1-14c0-8,1-15,3-22c2-7,4-14,8-21c3-7,8-14,13-22s11-16,18-24
		c9-11,17-21,24-28c7-7,13-13,18-17c4-4,8-6,12-6s6,2,6,5s-8,14-23,34s-37,46-66,80v11c19-21,35-36,47-46c12-10,21-15,27-15
		c3,0,5,2,6,5c1,3,2,7,2,11c0,8-4,16-11,23c-7,7-18,15-33,24c3,4,5,7,7,8c2,2,4,3,7,3s5-1,9-3c3-2,6-4,9-7
		C848.8,161.3,853.8,157.3,860.8,151.3z M810.8,157.3c3-2,7-5,12-10c5-4,9-9,12-14s5-9,5-12c0-1-1-2-2-2c-3,0-9,3-17,9
		c-8,6-16,14-23,24C801.8,152.3,805.8,154.3,810.8,157.3z"/>
</g>
<g>
	
		<linearGradient id="SVGID_6_" gradientUnits="userSpaceOnUse" x1="591.284" y1="18.209" x2="591.284" y2="239.534" gradientTransform="matrix(1 0 0 -1 0 402.032)">
		<stop  offset="0" style="stop-color:#0062E0"/>
		<stop  offset="1" style="stop-color:#19AFFF"/>
	</linearGradient>
	<path class="st6" d="M631.8,310.3c-2-4-5-7-9-10s-9-6-14-7c-5-2-11-3-16-4c-17-2-32-8-47-16c-1-1-3-2-4-4s-2-4-2-6c0-7,1-15,4-22
		c2-7,6-13,9-17c6-7,17-13,33-18s34-8,54-8c12,0,21,1,28,3c6,2,10,5,10,8c0,6-1,11-3,14c-2,3-3,6-5,7c-2,1-5,3-10,5c-5,2-10,4-14,6
		c-4,2-7,4-10,6c-3,2-4,3-5,3c-1,0-1,0-1-1c0-1,1-4,4-6c3-2,7-5,11-7c5-2,7-4,7-5s-3-2-8-2c-15,0-29,1-42,4c-13,3-23,6-31,11
		c-7,4-11,9-11,14c0,3,2,5,5,6s10,3,20,6c10,3,20,6,28,10c12,5,21,10,27,16s9,12,9,19c0,5-1,9-3,14c-2,5-6,9-10,13c-4,4-9,7-15,10
		c-5,2-11,4-18,6s-15,3-24,4c-10-2-19-2-26-2c-14,0-26-1-35-4c-9-3-13-7-13-12c0-2,1-6,4-12s6-9,11-11c4-1,7-2,10-2s5,0,5,1
		c0,0,0,0,0,1c0,0-1,0-1,1h-1c-2,1-3,1-4,2c-1,1-2,1-2,1c-1,0-1,1-1,2c0,2,9,3,26,3c15,0,27-1,36-2c9-1,18-3,25-6
		C619.8,319.3,625.8,315.3,631.8,310.3z"/>
	
		<linearGradient id="SVGID_7_" gradientUnits="userSpaceOnUse" x1="716.7841" y1="18.209" x2="716.7841" y2="239.534" gradientTransform="matrix(1 0 0 -1 0 402.032)">
		<stop  offset="0" style="stop-color:#0062E0"/>
		<stop  offset="1" style="stop-color:#19AFFF"/>
	</linearGradient>
	<path class="st7" d="M725.8,299.3c-12,16-21,27-27,34s-11,10-15,10c-3,0-6-1-9-4c-3-3-5-6-6-11c-1-4-2-9-2-14c0-3,0-6,1-9
		c1-3,2-6,4-9c2-3,4-7,7-10c3-4,6-8,10-13c2-3,5-5,6-7c2-2,3-3,5-4c2-1,4-1,8-1c3,0,5,0,8,1c2,1,4,1,4,2c0,1-1,4-4,8c-2,4-6,9-12,14
		c-5,6-12,11-19,16c-2,5-2,9-2,11c0,4,1,5,4,5c1,0,3-1,5-3c2-2,6-5,12-10c5-5,10-9,15-13c3-3,7-7,11-13s8-10,10-13c6-6,10-11,12-13
		c2-2,4-3,6-3c2,0,3,1,4,2c1,1,1,4,1,8c0,2,0,3,0,4s-1,2-2,4c-1,2-3,5-6,9c-3,5-7,10-11,16c-2,3-4,7-6,11c-2,4-3,7-3,9c0,4,2,6,5,6
		c3,0,6-1,10-3s9-6,17-12v8c-10,9-17,15-21,19c-5,4-9,7-12,9c-3,2-7,3-10,3c-7,0-10-4-10-12c0-3,1-7,3-13
		C717.8,316.3,720.8,309.3,725.8,299.3z"/>
	
		<linearGradient id="SVGID_8_" gradientUnits="userSpaceOnUse" x1="801.284" y1="18.209" x2="801.284" y2="239.534" gradientTransform="matrix(1 0 0 -1 0 402.032)">
		<stop  offset="0" style="stop-color:#0062E0"/>
		<stop  offset="1" style="stop-color:#19AFFF"/>
	</linearGradient>
	<path class="st8" d="M839.8,307.3v8c-9,9-16,15-22,20c-6,5-11,9-16,12c-5,3-10,4-14,4c-5,0-9-2-13-5c-4-3-7-8-9-14c-2-6-3-12-3-18
		c0-6,1-11,4-15c2-4,7-10,14-17c8-8,16-15,23-19c7-4,13-7,17-7c3,0,5,1,8,3c2,2,3,5,3,8c0,3-1,6-4,11c-3,5-6,9-9,13c-3,4-6,5-8,5
		c-2,0-3-1-3-3c0-1,0-1,0-2c0-1,0-1,0-2s0-2-1-2s-2,0-3,1c-8,6-14,10-17,12c-3,2-5,5-7,7c-2,2-3,5-3,8c0,5,2,9,5,12c3,3,7,5,12,5
		s11-2,19-6C820.8,321.3,829.8,315.3,839.8,307.3z"/>
	
		<linearGradient id="SVGID_9_" gradientUnits="userSpaceOnUse" x1="885.7841" y1="18.209" x2="885.7841" y2="239.534" gradientTransform="matrix(1 0 0 -1 0 402.032)">
		<stop  offset="0" style="stop-color:#0062E0"/>
		<stop  offset="1" style="stop-color:#19AFFF"/>
	</linearGradient>
	<path class="st9" d="M931.8,307.3v8c-9,11-17,19-23,25c-6,6-12,8-16,8s-8-1-11-4c-3-2-6-6-9-10c-3-4-6-10-9-18c-4,5-8,10-11,15
		s-6,7-7,9c-1,1-3,2-4,2c-2,0-4-1-5-4c-1-3-1-7-1-12c0-7,1-15,3-21c2-7,4-14,8-20c4-6,8-14,13-21c5-8,11-15,18-24c9-11,17-21,23-28
		c7-7,12-13,17-16c5-4,9-5,12-5c4,0,6,2,6,5c0,3-7,14-22,33s-36,45-64,77v11c19-20,34-35,45-45s20-15,27-15c3,0,5,2,6,5
		c1,3,2,6,2,10c0,8-3,16-10,22c-7,7-18,15-32,24c2,4,5,6,7,8c2,2,4,3,7,3c3,0,5-1,8-3c3-2,6-4,9-7
		C920.8,317.3,925.8,313.3,931.8,307.3z M882.8,313.3c3-2,7-5,12-10c5-4,9-9,12-13c3-5,5-9,5-12c0-1-1-2-2-2c-3,0-9,3-16,9
		c-7,6-15,14-22,23C874.8,309.3,878.8,310.3,882.8,313.3z"/>
	
		<linearGradient id="SVGID_10_" gradientUnits="userSpaceOnUse" x1="970.784" y1="18.209" x2="970.784" y2="239.534" gradientTransform="matrix(1 0 0 -1 0 402.032)">
		<stop  offset="0" style="stop-color:#0062E0"/>
		<stop  offset="1" style="stop-color:#19AFFF"/>
	</linearGradient>
	<path class="st10" d="M930.8,310.3v-3c21-22,36-38,44-47c2-10,6-15,13-15c2,0,4,0,6,1l1,2c0,1-1,2-1,4s1,4,2,9c1,5,2,8,3,11
		c1,3,1,6,1,10c0,5-1,11-4,16c-2,5-6,10-11,14c-5,5-11,9-18,14c3,0,5,1,7,1c3,0,7-1,11-3c4-2,8-4,12-7c4-3,9-7,14-11v8
		c-11,10-20,18-28,23c-8,5-16,8-22,8c-8,0-15-3-22-10c-4-4-6-8-7-11C930.8,322.3,930.8,317.3,930.8,310.3z M976.8,292.3l-2-18
		c-5,6-16,17-33,33c5,1,8,3,10,4c2,2,4,5,8,11c6-2,10-5,13-9c3-4,5-9,5-16c0-1,0-2,0-2C976.8,293.3,976.8,292.3,976.8,292.3z"/>
</g>
</svg>
